<svg xmlns="http://www.w3.org/2000/svg" viewBox="0 0 42.37 44.62"><defs><style>.cls-1{fill:none}.cls-2{fill:#b3b7c1}</style></defs><g id="Layer_2" data-name="Layer 2"><g id="default"><g id="grafismo"><path class="cls-1" d="M37 5.36a.47.47 0 01-.12-.36l.35-2.84-3.88 4.63h4a.5.5 0 01.38.17.51.51 0 01.12.39l-.35 2.84 3.9-4.66h-4a.48.48 0 01-.4-.17zM5.22 27.68a.47.47 0 01-.12-.39l.35-2.84-3.88 4.66h4a.5.5 0 01.38.17.51.51 0 01.12.39l-.35 2.84 3.88-4.66h-4a.48.48 0 01-.38-.17zM26.41 27.68a.52.52 0 01-.13-.39l.36-2.84-3.89 4.66h4a.52.52 0 01.38.17.55.55 0 01.12.39l-.36 2.84 3.89-4.66h-4a.48.48 0 01-.37-.17zM15.81 5.36a.51.51 0 01-.12-.36l.36-2.84-3.89 4.63h4a.48.48 0 01.37.17.47.47 0 01.12.39l-.35 2.84 3.88-4.66h-4a.5.5 0 01-.37-.17z"/><path class="cls-1" d="M37.19 12.14a.48.48 0 01-.38.18.45.45 0 01-.2 0 .52.52 0 01-.3-.52l.5-4h-4.53a.5.5 0 01-.38-.8L37.56.18a.49.49 0 01.58-.18.52.52 0 01.3.52l-.5 4h4.43V0H0v4.53h.09a.51.51 0 01.46.29.51.51 0 01-.07.53L0 5.92v38.7h42.37V5.92zM11.07 27.67l-5.66 6.79a.49.49 0 01-.38.18.65.65 0 01-.2 0 .5.5 0 01-.3-.52l.5-4H.5a.49.49 0 01-.45-.29.47.47 0 01.07-.53l5.66-6.8a.49.49 0 01.58-.14.52.52 0 01.3.52l-.5 4h4.53a.5.5 0 01.38.82zm4.55-15.35a.48.48 0 01-.2 0 .5.5 0 01-.29-.52l.49-4h-4.53a.5.5 0 01-.38-.8L16.37.18a.5.5 0 01.88.38l-.5 4h4.53a.48.48 0 01.45.29.49.49 0 01-.06.53L16 12.14a.5.5 0 01-.38.18zm16.64 15.35l-5.66 6.79a.5.5 0 01-.39.18.65.65 0 01-.19 0 .49.49 0 01-.3-.52l.49-4h-4.52a.5.5 0 01-.39-.82l5.7-6.8a.51.51 0 01.59-.14.5.5 0 01.29.52l-.49 4h4.53a.49.49 0 01.45.29.51.51 0 01-.11.5z"/><path class="cls-2" d="M.55 4.82a.51.51 0 00-.46-.29H0v1.39l.48-.57a.51.51 0 00.07-.53zM21.73 4.82a.48.48 0 00-.45-.29h-4.53l.5-4a.5.5 0 00-.88-.38L10.71 7a.5.5 0 00.38.82h4.53l-.49 4a.5.5 0 00.29.52.48.48 0 00.2 0 .5.5 0 00.39-.18l5.66-6.79a.49.49 0 00.06-.55zm-5.4 5.37l.35-2.84a.47.47 0 00-.12-.35.48.48 0 00-.37-.17h-4l3.89-4.66L15.69 5a.51.51 0 00.12.39.5.5 0 00.38.17h4zM38.44.56a.52.52 0 00-.3-.52.49.49 0 00-.58.14L31.9 7a.5.5 0 00.38.82h4.53l-.5 4a.52.52 0 00.3.52.45.45 0 00.2 0 .48.48 0 00.38-.18l5.18-6.22V4.53h-4.43zm3 5l-3.88 4.66.35-2.84a.51.51 0 00-.16-.38.5.5 0 00-.38-.17h-4l3.88-4.66L36.88 5a.47.47 0 00.12.39.48.48 0 00.37.17zM10.69 26.85H6.16l.5-4a.52.52 0 00-.3-.52.49.49 0 00-.58.14L.12 29.29a.47.47 0 00-.07.53.49.49 0 00.45.29H5l-.5 4a.5.5 0 00.3.52.65.65 0 00.2 0 .49.49 0 00.38-.18l5.66-6.79a.5.5 0 00-.38-.82zm-4.95 5.66l.35-2.84a.51.51 0 00-.09-.39.5.5 0 00-.38-.17h-4l3.88-4.66-.4 2.84a.47.47 0 00.12.39.48.48 0 00.37.17h4zM31.88 26.85h-4.53l.49-4a.5.5 0 00-.29-.52.51.51 0 00-.59.14l-5.66 6.82a.5.5 0 00.39.82h4.52l-.49 4a.49.49 0 00.3.52.65.65 0 00.19 0 .5.5 0 00.39-.18l5.66-6.79a.51.51 0 00.07-.53.49.49 0 00-.45-.28zm-5 5.66l.36-2.84a.55.55 0 00-.12-.39.52.52 0 00-.38-.17h-4l3.89-4.66-.36 2.84a.52.52 0 00.13.39.48.48 0 00.37.17h4z"/></g></g></g></svg>