<svg xmlns="http://www.w3.org/2000/svg" viewBox="0 0 14.17 14.17"><defs><style>.cls-1{fill:#282b2d}</style></defs><g id="Layer_2" data-name="Layer 2"><g id="default"><g id="social"><path class="cls-1" d="M10.26 0H3.91A3.91 3.91 0 000 3.91v6.35a3.91 3.91 0 003.91 3.91h6.35a3.91 3.91 0 003.91-3.91V3.91A3.91 3.91 0 0010.26 0zm2.66 10.26a2.66 2.66 0 01-2.66 2.66H3.91a2.66 2.66 0 01-2.65-2.66V3.91a2.65 2.65 0 012.65-2.65h6.35a2.66 2.66 0 012.66 2.65v6.35z"/><path class="cls-1" d="M7.09 3.43a3.66 3.66 0 103.65 3.66 3.66 3.66 0 00-3.65-3.66zm0 6.05a2.4 2.4 0 112.39-2.39 2.4 2.4 0 01-2.39 2.39zM10.89 2.37a.92.92 0 10.65 1.57.92.92 0 000-1.3.93.93 0 00-.65-.27z"/></g></g></g></svg>