<svg xmlns="http://www.w3.org/2000/svg" viewBox="0 0 166.31 100.51"><path fill="#282B2D" d="M29.5 74.81l-.3 3.79 6.64-3.79 4.87-3.42-8.07 3.42zm1.12-68.18h-7.45q-14 0-14.75 15.12l-3.1 58.76Q5 87.25 7.57 91l16.86-9.65-8.29 2.29 2.9.8c-1.5-.71-2.18-2.3-2.06-4.77l3.1-57c.15-3.48 1.77-5.22 4.83-5.22h2.36q5.2 0 4.95 5.22l-.49 9.17h11.65l.5-10q.73-15.21-13.26-15.21zM49.45 6.63L49 17.4h11.11l-2.33 44.89 12-6.87 10.09-5.77L70 52.46l1.77-35.06h11.16l.5-10.77zM90.12 6.63l-2 38.3 12-6.85 10-5.73-9.88 3 1-18h17.36l.5-10.77zM154.89 6.53L166.31 0l-17.44 6.53h-26.45l-.5 10.78h11.16L133 19zM53.88 69.73l-8.15 4.66L53.77 72l-1.45 27.7h11.65l1.93-36.84-12.02 6.87zM96.08 48.49l.15-2.97-11.97 6.85-8.41 4.81 8.3-2.71-2.33 45.23h11.66l2.11-40.42h15.37l.5-10.79H96.08zM129.42 26.58l-10 5.71 9.85-2.86-3.68 70.27h11.65l4.1-78.24h11.16l.37-8.29-23.45 13.41zM24.9 86.28a4.2 4.2 0 01-4.32 2.63h-.28L0 100.51l9.28-2.57-3.4-.79c2.16 1.71 5.17 2.55 9 2.55h7.44q14 0 14.76-15.14l.35-5.43z"/></svg>