<svg xmlns="http://www.w3.org/2000/svg" width="167.72" height="62.52"><clipPath id="a" transform="translate(-1.6 -.73)"><path fill="none" d="M44.57 0l-4.14 64.68H0V0h44.57z"/></clipPath><path d="M49.3 15.96l.16-2.76h4.53l-.59 11.07h-5.82q-3.45 0-3.27-3.84l.8-15q.18-3.9 3.65-3.9h2c2.54 0 3.74 1.32 3.62 4L54.25 8h-3l.09-2q.14-1.73-1.12-1.73h-.76c-.87 0-1.34.55-1.4 1.65l-.73 14c-.06 1.1.34 1.65 1.21 1.65h2l.28-5.58zM58.31 1.52h5.84q3.42 0 3.24 3.9l-.29 5.62c-.11 2-.77 3.25-2 3.78l1.62 9.45h-2.83L62.4 15.1h-1.81l-.47 9.17h-3zm2.41 11h2c.89 0 1.36-.55 1.43-1.65l.25-4.94c0-1.1-.38-1.66-1.27-1.66h-2zM72.97 24.27h-3l1-18.88q.2-3.9 3.78-3.9h2.22q3.59 0 3.39 3.9l-.96 18.88h-3l.41-8.34H73.4zm4-11.1l.43-7.56c0-.89-.39-1.34-1.26-1.34h-.82a1.23 1.23 0 00-1.37 1.33l-.41 7.59zM83.28 24.27l1.18-22.75h5.2q4.2 0 4 4.38L92.87 21q-.19 3.27-3.78 3.27zm3.12-2.73h2.26c.78 0 1.19-.33 1.23-1l.77-14.6c.05-1.11-.36-1.67-1.26-1.67h-2.1zM96.58 24.27l1.17-22.75h7.43l-.13 2.75h-4.44l-.38 6.92h3.94l-.13 2.76h-3.94l-.41 7.58h4.44l-.12 2.74zM51.84 62.52l.81-15.51h-5.52l-.81 15.51h-4.48l1.76-34.17h4.48l-.76 14.51h5.52l.76-14.51h4.48l-1.77 34.17zM67.6 62.52q-5.43 0-5.15-5.8l1.19-22.52q.29-5.85 5.67-5.85h4.28q5.39 0 5.1 5.85L77.5 56.72q-.28 5.8-5.72 5.8zm1.23-4.14h2.29c1.2 0 1.84-.66 1.9-2l1.19-21.89a1.67 1.67 0 00-1.9-2h-2.14a1.84 1.84 0 00-2 2l-1.24 21.89a1.67 1.67 0 001.9 2zM84.83 28.35h8.76q5.13 0 4.85 5.85l-.43 8.43q-.24 4.47-3 5.66l2.39 14.23h-4.19l-2.24-13.8h-2.71l-.72 13.8h-4.47zm3.62 16.47h3c1.33 0 2-.83 2.14-2.48l.38-7.38c.1-1.65-.52-2.47-1.86-2.47h-3zM106.82 62.52h-4.42l1.47-28.32q.28-5.85 5.67-5.85h3.33q5.37 0 5.09 5.85l-1.56 28.32h-4.48l.62-12.51h-5.14zm6-16.66l.58-11.37c.06-1.34-.56-2-1.86-2h-1.24a1.83 1.83 0 00-2 2l-.62 11.37zm-1.91-20.08h-3.19l2.48-5.62h4.14zM124.05 28.35h8.76q5.15 0 4.86 5.85l-.43 8.43q-.24 4.47-3 5.66l2.43 14.23h-4.27l-2.24-13.8h-2.71l-.72 13.8h-4.47zm3.62 16.47h2.95c1.33 0 2.05-.83 2.14-2.48l.38-7.38c.1-1.65-.52-2.47-1.85-2.47h-2.95zM141.81 62.52l1.76-34.17h4.47l-1.76 34.17zM156.61 62.52h-4.47l1.47-28.32q.28-5.85 5.67-5.85h3.33q5.37 0 5.09 5.85l-1.47 28.32h-4.48l.65-12.51h-5.14zm6-16.66l.62-11.37c.06-1.34-.56-2-1.86-2h-1.24a1.83 1.83 0 00-2 2l-.62 11.37z"/><g clip-path="url(#a)"><path d="M27.75 29.42l-6.53-17.96 4.54-1.65 8.18 22.5-22.49 8.19-1.66-4.54 17.96-6.54z"/><path d="M22.14 6.92A25.48 25.48 0 1054.8 22.15 25.51 25.51 0 0022.14 6.92M20.3 1.87A30.85 30.85 0 111.87 41.42 30.86 30.86 0 0120.3 1.87z"/></g></svg>