<svg xmlns="http://www.w3.org/2000/svg" width="167.72" height="62.52"><defs><clipPath id="clip-path" transform="translate(-1.6 -.73)"><path fill="none" d="M44.57 0l-4.14 64.68H0V0h44.57z"/></clipPath><style>.cls-2{fill:#009fe3}.cls-3{fill:#282b2d}</style></defs><g id="Layer_2" data-name="Layer 2"><g id="default"><g id="grade-horaria"><path class="cls-2" d="M50.9 16.69l.16-2.76h4.53L55 25h-5.82q-3.45 0-3.27-3.84l.8-15q.18-3.9 3.65-3.9h2c2.54 0 3.74 1.32 3.62 4l-.13 2.47h-3l.09-2Q53.08 5 51.82 5h-.76c-.87 0-1.34.55-1.4 1.65l-.73 14c-.06 1.1.34 1.65 1.21 1.65h2l.28-5.58zM59.91 2.25h5.84q3.42 0 3.24 3.9l-.29 5.62c-.11 2-.77 3.25-2 3.78L68.32 25h-2.83L64 15.83h-1.81L61.72 25h-3zm2.41 11h2c.89 0 1.36-.55 1.43-1.65L66 6.66C66 5.56 65.62 5 64.73 5h-2zM74.57 25h-3l1-18.88q.2-3.9 3.78-3.9h2.22q3.59 0 3.39 3.9L81 25h-3l.41-8.34H75zm4-11.1L79 6.34C79 5.45 78.61 5 77.74 5h-.82a1.23 1.23 0 00-1.37 1.33l-.41 7.59zM84.88 25l1.18-22.75h5.2q4.2 0 4 4.38l-.79 15.1Q94.28 25 90.69 25zM88 22.27h2.26c.78 0 1.19-.33 1.23-1l.77-14.6C92.31 5.56 91.9 5 91 5h-2.1zM98.18 25l1.17-22.75h7.43L106.65 5h-4.44l-.38 6.92h3.94l-.13 2.76h-3.94l-.41 7.58h4.44l-.12 2.74z" transform="translate(-1.6 -.73)"/><path class="cls-3" d="M53.44 63.25l.81-15.51h-5.52l-.81 15.51h-4.48l1.76-34.17h4.48l-.76 14.51h5.52l.76-14.51h4.48l-1.77 34.17zM69.2 63.25q-5.43 0-5.15-5.8l1.19-22.52q.29-5.85 5.67-5.85h4.28q5.39 0 5.1 5.85L79.1 57.45q-.28 5.8-5.72 5.8zm1.23-4.14h2.29c1.2 0 1.84-.66 1.9-2l1.19-21.89a1.67 1.67 0 00-1.9-2h-2.14a1.84 1.84 0 00-2 2l-1.24 21.89a1.67 1.67 0 001.9 2zM86.43 29.08h8.76q5.13 0 4.85 5.85l-.43 8.43q-.24 4.47-3 5.66L99 63.25h-4.19l-2.24-13.8h-2.71l-.72 13.8h-4.47zm3.62 16.47h3c1.33 0 2-.83 2.14-2.48l.38-7.38c.1-1.65-.52-2.47-1.86-2.47h-3zM108.42 63.25H104l1.47-28.32q.28-5.85 5.67-5.85h3.33q5.37 0 5.09 5.85L118 63.25h-4.48l.62-12.51H109zm6-16.66l.58-11.37c.06-1.34-.56-2-1.86-2h-1.24a1.83 1.83 0 00-2 2l-.62 11.37zm-1.91-20.08h-3.19l2.48-5.62h4.14zM125.65 29.08h8.76q5.15 0 4.86 5.85l-.43 8.43q-.24 4.47-3 5.66l2.43 14.23H134l-2.24-13.8h-2.71l-.72 13.8h-4.47zm3.62 16.47h2.95c1.33 0 2.05-.83 2.14-2.48l.38-7.38c.1-1.65-.52-2.47-1.85-2.47h-2.95zM143.41 63.25l1.76-34.17h4.47l-1.76 34.17zM158.21 63.25h-4.47l1.47-28.32q.28-5.85 5.67-5.85h3.33q5.37 0 5.09 5.85l-1.47 28.32h-4.48l.65-12.51h-5.14zm6-16.66l.62-11.37c.06-1.34-.56-2-1.86-2h-1.24a1.83 1.83 0 00-2 2l-.62 11.37z" transform="translate(-1.6 -.73)"/><g clip-path="url(#clip-path)"><path class="cls-3" d="M27.75 29.42l-6.53-17.96 4.54-1.65 8.18 22.5-22.49 8.19-1.66-4.54 17.96-6.54z"/><path class="cls-3" d="M23.74 7.65A25.48 25.48 0 1056.4 22.88 25.51 25.51 0 0023.74 7.65M21.9 2.6A30.85 30.85 0 113.47 42.15 30.86 30.86 0 0121.9 2.6z" transform="translate(-1.6 -.73)"/></g></g></g></g></svg>