<svg xmlns="http://www.w3.org/2000/svg" width="45" height="45"><path fill="#97A1AD" d="M.58 4.86a.53.53 0 00-.48-.29H0V6l.51-.58a.47.47 0 00.07-.56zM23.08 4.86a.53.53 0 00-.48-.29h-4.81l.53-4A.5.5 0 0018 0a.55.55 0 00-.62.14L11.37 7a.49.49 0 00-.07.54.54.54 0 00.48.29h4.81l-.53 4a.49.49 0 00.32.52.52.52 0 00.21 0 .55.55 0 00.41-.18l6-6.85a.47.47 0 00.08-.46zm-5.74 5.42l.38-2.86a.49.49 0 00-.13-.4.54.54 0 00-.4-.17h-4.28L17 2.15 16.66 5a.47.47 0 00.13.39.54.54 0 00.4.17h4.28zM40.82.57A.5.5 0 0040.5 0a.55.55 0 00-.62.14L33.87 7a.49.49 0 00-.07.54.54.54 0 00.48.29h4.81l-.53 4a.49.49 0 00.32.52.52.52 0 00.21 0 .55.55 0 00.41-.18L45 6V4.57h-4.71zm3.15 5l-4.13 4.71.38-2.86a.49.49 0 00-.13-.4.54.54 0 00-.4-.17h-4.28l4.13-4.7L39.16 5a.47.47 0 00.13.39.54.54 0 00.4.17zM11.35 27.08H6.54l.53-4a.5.5 0 00-.32-.53.55.55 0 00-.62.14l-6 6.85a.49.49 0 00-.07.54.56.56 0 00.48.29h4.8l-.53 4a.49.49 0 00.32.52.52.52 0 00.21 0 .55.55 0 00.41-.18l6-6.85a.47.47 0 00.07-.53.53.53 0 00-.47-.25zm-5.26 5.7l.38-2.86a.48.48 0 00-.13-.39.54.54 0 00-.4-.17H1.66l4.13-4.7-.38 2.86a.47.47 0 00.13.39.54.54 0 00.4.17h4.28zM33.85 27.08H29l.53-4a.5.5 0 00-.32-.53.55.55 0 00-.62.14l-6 6.85a.49.49 0 00-.07.54.54.54 0 00.48.29h4.81l-.53 4a.49.49 0 00.32.52.52.52 0 00.21 0 .55.55 0 00.41-.18l6-6.85a.47.47 0 00.07-.53.53.53 0 00-.44-.25zm-5.26 5.7l.41-2.86a.48.48 0 00-.13-.39.54.54 0 00-.4-.17h-4.31l4.13-4.7-.38 2.86a.47.47 0 00.13.39.54.54 0 00.4.17h4.28z"/></svg>