<svg xmlns="http://www.w3.org/2000/svg" xmlns:xlink="http://www.w3.org/1999/xlink" viewBox="0 0 167.72 62.52"><defs><style>.cls-1{fill:none;}.cls-2{fill:#009fe3;}.cls-3{fill:#282b2d;}.cls-4{clip-path:url(#clip-path);}</style><clipPath id="clip-path" transform="translate(-1.6 -0.73)"><polygon class="cls-1" points="44.57 0 40.43 64.68 0 64.68 0 0 44.57 0"/></clipPath></defs><g id="Layer_2" data-name="Layer 2"><g id="default"><g id="grade-horaria"><path class="cls-2" d="M50.9,16.69l.16-2.76h4.53L55,25H49.18q-3.45,0-3.27-3.84l.8-15q.18-3.9,3.65-3.9h2c2.54,0,3.74,1.32,3.62,4l-.13,2.47h-3l.09-2Q53.08,5,51.82,5h-.76c-.87,0-1.34.55-1.4,1.65l-.73,14c-.06,1.1.34,1.65,1.21,1.65h2l.28-5.58Z" transform="translate(-1.6 -0.73)"/><path class="cls-2" d="M59.91,2.25h5.84q3.42,0,3.24,3.9l-.29,5.62c-.11,2-.77,3.25-2,3.78L68.32,25H65.49L64,15.83H62.19L61.72,25h-3Zm2.41,11h2c.89,0,1.36-.55,1.43-1.65L66,6.66C66,5.56,65.62,5,64.73,5h-2Z" transform="translate(-1.6 -0.73)"/><path class="cls-2" d="M74.57,25h-3l1-18.88q.2-3.9,3.78-3.9h2.22q3.59,0,3.39,3.9L81,25H78l.41-8.34H75Zm4-11.1L79,6.34C79,5.45,78.61,5,77.74,5h-.82a1.23,1.23,0,0,0-1.37,1.33l-.41,7.59Z" transform="translate(-1.6 -0.73)"/><path class="cls-2" d="M84.88,25,86.06,2.25h5.2q4.2,0,4,4.38l-.79,15.1Q94.28,25,90.69,25ZM88,22.27h2.26c.78,0,1.19-.33,1.23-1l.77-14.6C92.31,5.56,91.9,5,91,5h-2.1Z" transform="translate(-1.6 -0.73)"/><path class="cls-2" d="M98.18,25,99.35,2.25h7.43L106.65,5h-4.44l-.38,6.92h3.94l-.13,2.76H101.7l-.41,7.58h4.44L105.61,25Z" transform="translate(-1.6 -0.73)"/><path class="cls-3" d="M53.44,63.25l.81-15.51H48.73l-.81,15.51H43.44L45.2,29.08h4.48l-.76,14.51h5.52l.76-14.51h4.48L57.91,63.25Z" transform="translate(-1.6 -0.73)"/><path class="cls-3" d="M69.2,63.25q-5.43,0-5.15-5.8l1.19-22.52q.29-5.85,5.67-5.85h4.28q5.39,0,5.1,5.85L79.1,57.45q-.28,5.8-5.72,5.8Zm1.23-4.14h2.29c1.2,0,1.84-.66,1.9-2l1.19-21.89a1.67,1.67,0,0,0-1.9-2H71.77a1.84,1.84,0,0,0-2,2L68.53,57.11A1.67,1.67,0,0,0,70.43,59.11Z" transform="translate(-1.6 -0.73)"/><path class="cls-3" d="M86.43,29.08h8.76q5.13,0,4.85,5.85l-.43,8.43q-.24,4.47-3,5.66L99,63.25H94.81l-2.24-13.8H89.86l-.72,13.8H84.67Zm3.62,16.47h3c1.33,0,2-.83,2.14-2.48l.38-7.38c.1-1.65-.52-2.47-1.86-2.47h-3Z" transform="translate(-1.6 -0.73)"/><path class="cls-3" d="M108.42,63.25H104l1.47-28.32q.28-5.85,5.67-5.85h3.33q5.37,0,5.09,5.85L118,63.25h-4.48l.62-12.51H109Zm6-16.66L115,35.22c.06-1.34-.56-2-1.86-2h-1.24a1.83,1.83,0,0,0-2,2l-.62,11.37Zm-1.91-20.08h-3.19l2.48-5.62h4.14Z" transform="translate(-1.6 -0.73)"/><path class="cls-3" d="M125.65,29.08h8.76q5.15,0,4.86,5.85l-.43,8.43q-.24,4.47-3,5.66l2.43,14.23H134l-2.24-13.8h-2.71l-.72,13.8h-4.47Zm3.62,16.47h2.95c1.33,0,2.05-.83,2.14-2.48l.38-7.38c.1-1.65-.52-2.47-1.85-2.47h-2.95Z" transform="translate(-1.6 -0.73)"/><path class="cls-3" d="M143.41,63.25l1.76-34.17h4.47l-1.76,34.17Z" transform="translate(-1.6 -0.73)"/><path class="cls-3" d="M158.21,63.25h-4.47l1.47-28.32q.28-5.85,5.67-5.85h3.33q5.37,0,5.09,5.85l-1.47,28.32h-4.48L164,50.74h-5.14Zm6-16.66.62-11.37c.06-1.34-.56-2-1.86-2h-1.24a1.83,1.83,0,0,0-2,2l-.62,11.37Z" transform="translate(-1.6 -0.73)"/><g class="cls-4"><polygon class="cls-3" points="27.75 29.42 21.22 11.46 25.76 9.81 33.94 32.31 11.45 40.5 9.79 35.96 27.75 29.42"/><path class="cls-3" d="M23.74,7.65A25.48,25.48,0,1,0,56.4,22.88,25.51,25.51,0,0,0,23.74,7.65M21.9,2.6A30.85,30.85,0,1,1,3.47,42.15,30.86,30.86,0,0,1,21.9,2.6Z" transform="translate(-1.6 -0.73)"/></g></g></g></g></svg>