<svg xmlns="http://www.w3.org/2000/svg" width="42.37" height="44.62" viewBox="0 0 42.37 44.62"><defs><style>.cls-1{fill:none;}.cls-2{fill:#b3b7c1;}</style></defs><g id="Layer_2" data-name="Layer 2"><g id="default"><g id="grafismo"><path class="cls-1" d="M37,5.36A.47.47,0,0,1,36.88,5l.35-2.84L33.35,6.79h4a.5.5,0,0,1,.38.17.51.51,0,0,1,.12.39l-.35,2.84L41.4,5.53h-4A.48.48,0,0,1,37,5.36Z"/><path class="cls-1" d="M5.22,27.68a.47.47,0,0,1-.12-.39l.35-2.84L1.57,29.11h4a.5.5,0,0,1,.38.17.51.51,0,0,1,.12.39l-.35,2.84,3.88-4.66h-4A.48.48,0,0,1,5.22,27.68Z"/><path class="cls-1" d="M26.41,27.68a.52.52,0,0,1-.13-.39l.36-2.84-3.89,4.66h4a.52.52,0,0,1,.38.17.55.55,0,0,1,.12.39l-.36,2.84,3.89-4.66h-4A.48.48,0,0,1,26.41,27.68Z"/><path class="cls-1" d="M15.81,5.36A.51.51,0,0,1,15.69,5l.36-2.84L12.16,6.79h4a.48.48,0,0,1,.37.17.47.47,0,0,1,.12.39l-.35,2.84,3.88-4.66h-4A.5.5,0,0,1,15.81,5.36Z"/><path class="cls-1" d="M37.19,12.14a.48.48,0,0,1-.38.18.45.45,0,0,1-.2,0,.52.52,0,0,1-.3-.52l.5-4H32.28A.5.5,0,0,1,31.9,7L37.56.18A.49.49,0,0,1,38.14,0a.52.52,0,0,1,.3.52l-.5,4h4.43V0H0V4.53H.09a.51.51,0,0,1,.46.29.51.51,0,0,1-.07.53L0,5.92v38.7H42.37V5.92ZM11.07,27.67,5.41,34.46a.49.49,0,0,1-.38.18.65.65,0,0,1-.2,0,.5.5,0,0,1-.3-.52l.5-4H.5a.49.49,0,0,1-.45-.29.47.47,0,0,1,.07-.53L5.78,22.5a.49.49,0,0,1,.58-.14.52.52,0,0,1,.3.52l-.5,4h4.53a.5.5,0,0,1,.38.82Zm4.55-15.35a.48.48,0,0,1-.2,0,.5.5,0,0,1-.29-.52l.49-4H11.09A.5.5,0,0,1,10.71,7L16.37.18a.5.5,0,0,1,.88.38l-.5,4h4.53a.48.48,0,0,1,.45.29.49.49,0,0,1-.06.53L16,12.14A.5.5,0,0,1,15.62,12.32ZM32.26,27.67,26.6,34.46a.5.5,0,0,1-.39.18.65.65,0,0,1-.19,0,.49.49,0,0,1-.3-.52l.49-4H21.69a.5.5,0,0,1-.39-.82L27,22.5a.51.51,0,0,1,.59-.14.5.5,0,0,1,.29.52l-.49,4h4.53a.49.49,0,0,1,.45.29A.51.51,0,0,1,32.26,27.67Z"/><path class="cls-2" d="M.55,4.82a.51.51,0,0,0-.46-.29H0V5.92l.48-.57A.51.51,0,0,0,.55,4.82Z"/><path class="cls-2" d="M21.73,4.82a.48.48,0,0,0-.45-.29H16.75l.5-4a.5.5,0,0,0-.88-.38L10.71,7a.5.5,0,0,0,.38.82h4.53l-.49,4a.5.5,0,0,0,.29.52.48.48,0,0,0,.2,0,.5.5,0,0,0,.39-.18l5.66-6.79A.49.49,0,0,0,21.73,4.82Zm-5.4,5.37.35-2.84A.47.47,0,0,0,16.56,7a.48.48,0,0,0-.37-.17h-4l3.89-4.66L15.69,5a.51.51,0,0,0,.12.39.5.5,0,0,0,.38.17h4Z"/><path class="cls-2" d="M38.44.56a.52.52,0,0,0-.3-.52.49.49,0,0,0-.58.14L31.9,7a.5.5,0,0,0,.38.82h4.53l-.5,4a.52.52,0,0,0,.3.52.45.45,0,0,0,.2,0,.48.48,0,0,0,.38-.18l5.18-6.22V4.53H37.94Zm3,5-3.88,4.66.35-2.84A.51.51,0,0,0,37.75,7a.5.5,0,0,0-.38-.17h-4l3.88-4.66L36.88,5a.47.47,0,0,0,.12.39.48.48,0,0,0,.37.17Z"/><path class="cls-2" d="M10.69,26.85H6.16l.5-4a.52.52,0,0,0-.3-.52.49.49,0,0,0-.58.14L.12,29.29a.47.47,0,0,0-.07.53.49.49,0,0,0,.45.29H5l-.5,4a.5.5,0,0,0,.3.52.65.65,0,0,0,.2,0,.49.49,0,0,0,.38-.18l5.66-6.79a.5.5,0,0,0-.38-.82ZM5.74,32.51l.35-2.84A.51.51,0,0,0,6,29.28a.5.5,0,0,0-.38-.17h-4l3.88-4.66L5.1,27.29a.47.47,0,0,0,.12.39.48.48,0,0,0,.37.17h4Z"/><path class="cls-2" d="M31.88,26.85H27.35l.49-4a.5.5,0,0,0-.29-.52.51.51,0,0,0-.59.14L21.3,29.29a.5.5,0,0,0,.39.82h4.52l-.49,4a.49.49,0,0,0,.3.52.65.65,0,0,0,.19,0,.5.5,0,0,0,.39-.18l5.66-6.79a.51.51,0,0,0,.07-.53A.49.49,0,0,0,31.88,26.85Zm-5,5.66.36-2.84a.55.55,0,0,0-.12-.39.52.52,0,0,0-.38-.17h-4l3.89-4.66-.36,2.84a.52.52,0,0,0,.13.39.48.48,0,0,0,.37.17h4Z"/></g></g></g></svg>
