<svg xmlns="http://www.w3.org/2000/svg" width="45" height="45" viewBox="0 0 45 45"><path fill="#97A1AD" d="M.58,4.86A.53.53,0,0,0,.1,4.57H0V6l.51-.58A.47.47,0,0,0,.58,4.86Z" transform="translate(0 0)"/><path fill="#97A1AD" d="M23.08,4.86a.53.53,0,0,0-.48-.29H17.79l.53-4A.5.5,0,0,0,18,0a.55.55,0,0,0-.62.14L11.37,7a.49.49,0,0,0-.07.54.54.54,0,0,0,.48.29h4.81l-.53,4a.49.49,0,0,0,.32.52.52.52,0,0,0,.21,0,.55.55,0,0,0,.41-.18l6-6.85A.47.47,0,0,0,23.08,4.86Zm-5.74,5.42.38-2.86a.49.49,0,0,0-.13-.4.54.54,0,0,0-.4-.17H12.91L17,2.15,16.66,5a.47.47,0,0,0,.13.39.54.54,0,0,0,.4.17h4.28Z" transform="translate(0 0)"/><path fill="#97A1AD" d="M40.82.57A.5.5,0,0,0,40.5,0a.55.55,0,0,0-.62.14L33.87,7a.49.49,0,0,0-.07.54.54.54,0,0,0,.48.29h4.81l-.53,4a.49.49,0,0,0,.32.52.52.52,0,0,0,.21,0,.55.55,0,0,0,.41-.18L45,6V4.57H40.29Zm3.15,5-4.13,4.71.38-2.86a.49.49,0,0,0-.13-.4.54.54,0,0,0-.4-.17H35.41l4.13-4.7L39.16,5a.47.47,0,0,0,.13.39.54.54,0,0,0,.4.17Z" transform="translate(0 0)"/><path fill="#97A1AD" d="M11.35,27.08H6.54l.53-4a.5.5,0,0,0-.32-.53.55.55,0,0,0-.62.14l-6,6.85a.49.49,0,0,0-.07.54.56.56,0,0,0,.48.29H5.34l-.53,4a.49.49,0,0,0,.32.52.52.52,0,0,0,.21,0,.55.55,0,0,0,.41-.18l6-6.85a.47.47,0,0,0,.07-.53A.53.53,0,0,0,11.35,27.08Zm-5.26,5.7.38-2.86a.48.48,0,0,0-.13-.39.54.54,0,0,0-.4-.17H1.66l4.13-4.7-.38,2.86a.47.47,0,0,0,.13.39.54.54,0,0,0,.4.17h4.28Z" transform="translate(0 0)"/><path fill="#97A1AD" d="M33.85,27.08H29l.53-4a.5.5,0,0,0-.32-.53.55.55,0,0,0-.62.14l-6,6.85a.49.49,0,0,0-.07.54.54.54,0,0,0,.48.29h4.81l-.53,4a.49.49,0,0,0,.32.52.52.52,0,0,0,.21,0,.55.55,0,0,0,.41-.18l6-6.85a.47.47,0,0,0,.07-.53A.53.53,0,0,0,33.85,27.08Zm-5.26,5.7L29,29.92a.48.48,0,0,0-.13-.39.54.54,0,0,0-.4-.17H24.16l4.13-4.7-.38,2.86a.47.47,0,0,0,.13.39.54.54,0,0,0,.4.17h4.28Z" transform="translate(0 0)"/></svg>
