<svg xmlns="http://www.w3.org/2000/svg" widht="7.38" height="14.17" viewBox="0 0 7.38 14.17"><defs><style>.cls-1{fill:#282b2d;}</style></defs><g id="Layer_2" data-name="Layer 2"><g id="default"><g id="social"><path class="cls-1" d="M4.73,5.32V3.59c0-.7.17-1.34,1.36-1.34H7.21a.18.18,0,0,0,.17-.18V.18A.18.18,0,0,0,7.21,0H5.47A3,3,0,0,0,2.23,3.33v2H.17A.18.18,0,0,0,0,5.49V7.56a.18.18,0,0,0,.17.18H2.23V14a.17.17,0,0,0,.17.17H4.56A.16.16,0,0,0,4.73,14V7.74H6.85A.18.18,0,0,0,7,7.58l.21-2.07a.18.18,0,0,0-.18-.19Z"/></g></g></g></svg>
