<svg xmlns="http://www.w3.org/2000/svg" widht="14.17" height="14.17" viewBox="0 0 14.17 14.17"><path fill="#404148" d="M10.26,0H3.91A3.91,3.91,0,0,0,0,3.91v6.35a3.91,3.91,0,0,0,3.91,3.91h6.35a3.91,3.91,0,0,0,3.91-3.91V3.91A3.91,3.91,0,0,0,10.26,0Zm2.66,10.26a2.66,2.66,0,0,1-2.66,2.66H3.91a2.66,2.66,0,0,1-2.65-2.66V3.91A2.65,2.65,0,0,1,3.91,1.26h6.35a2.66,2.66,0,0,1,2.66,2.65v6.35Z"/><path fill="#404148" d="M7.09,3.43a3.66,3.66,0,1,0,3.65,3.66A3.66,3.66,0,0,0,7.09,3.43Zm0,6.05A2.4,2.4,0,1,1,9.48,7.09,2.4,2.4,0,0,1,7.09,9.48Z"/><path fill="#404148" d="M10.89,2.37a.92.92,0,1,0,.65,1.57.92.92,0,0,0,0-1.3A.93.93,0,0,0,10.89,2.37Z"/></svg>
