<svg xmlns="http://www.w3.org/2000/svg" width="166.31" height="100.51" viewBox="0 0 166.31 100.51"><path fill="#000" d="M29.5,74.81l-.3,3.79,6.64-3.79,4.87-3.42-8.07,3.42ZM30.62,6.63H23.17q-14,0-14.75,15.12L5.32,80.51Q5,87.25,7.57,91l16.86-9.65-8.29,2.29,2.9.8c-1.5-.71-2.18-2.3-2.06-4.77l3.1-57c.15-3.48,1.77-5.22,4.83-5.22h2.36q5.2,0,4.95,5.22l-.49,9.17H43.38l.5-10Q44.61,6.63,30.62,6.63Z"/><path fill="#000" d="M49.45,6.63,49,17.4H60.11L57.78,62.29l12-6.87,10.09-5.77L70,52.46,71.77,17.4H82.93l.5-10.77Z"/><path fill="#000" d="M90.12,6.63l-2,38.3,12-6.85,10-5.73-9.88,3,1-18h17.36l.5-10.77Z"/><path fill="#000" d="M154.89,6.53,166.31,0,148.87,6.53H122.42l-.5,10.78h11.16L133,19Z"/><polygon fill="#000" points="53.88 69.73 45.73 74.39 53.77 72 52.32 99.7 63.97 99.7 65.9 62.86 53.88 69.73"/><polygon fill="#000" points="96.08 48.49 96.23 45.52 84.26 52.37 75.85 57.18 84.15 54.47 81.82 99.7 93.48 99.7 95.59 59.28 110.96 59.28 111.46 48.49 96.08 48.49"/><polygon fill="#000" points="129.42 26.58 119.42 32.29 129.27 29.43 125.59 99.7 137.24 99.7 141.34 21.46 152.5 21.46 152.87 13.17 129.42 26.58"/><path fill="#000" d="M24.9,86.28a4.2,4.2,0,0,1-4.32,2.63H20.3L0,100.51l9.28-2.57-3.4-.79c2.16,1.71,5.17,2.55,9,2.55h7.44q14,0,14.76-15.14l.35-5.43Z"/></svg>
